<?xml version="1.0" standalone="no"?>
<!DOCTYPE svg PUBLIC "-//W3C//DTD SVG 20010904//EN"
 "http://www.w3.org/TR/2001/REC-SVG-20010904/DTD/svg10.dtd">
<svg version="1.0" xmlns="http://www.w3.org/2000/svg"
 width="445.000000pt" height="445.000000pt" viewBox="0 0 445.000000 445.000000"
 preserveAspectRatio="xMidYMid meet">
<metadata>
Created by potrace 1.14, written by Peter Selinger 2001-2017
</metadata>
<g transform="translate(0.000000,445.000000) scale(0.100000,-0.100000)"
fill="#000000" stroke="none">
<path d="M1725 4174 c-269 -134 -493 -251 -497 -258 -5 -8 -7 -304 -6 -658 l3
-643 73 -36 c78 -38 80 -50 15 -64 -18 -3 -33 -11 -33 -16 0 -6 -5 -7 -12 -3
-8 5 -9 2 -5 -9 8 -21 -11 -33 -26 -18 -9 9 -7 11 8 5 15 -5 17 -4 10 5 -8 8
-22 7 -53 -6 -23 -9 -42 -20 -42 -25 0 -5 -4 -7 -8 -4 -5 3 -21 -1 -35 -9 -15
-8 -30 -14 -32 -14 -3 0 -20 -5 -38 -12 l-33 -11 -1 -84 c0 -60 3 -82 11 -77
8 5 8 3 0 -8 -14 -18 -14 -50 0 -42 6 4 5 0 -2 -9 -6 -8 -85 -48 -175 -88 -89
-40 -166 -77 -172 -82 -6 -6 -10 -175 -10 -466 l-1 -457 76 -36 c41 -19 90
-42 108 -50 l32 -14 -4 -321 -5 -321 62 -28 c34 -15 130 -58 212 -95 83 -37
175 -78 205 -92 78 -36 145 -66 218 -99 l64 -29 577 0 c480 0 583 2 607 14 16
8 97 44 179 81 83 37 179 80 215 97 36 16 103 46 150 66 47 20 108 48 135 62
l50 25 1 305 c1 168 2 310 3 316 1 9 71 47 91 50 16 1 140 64 141 71 1 4 3
212 3 461 2 307 -1 455 -8 461 -6 5 -88 43 -183 86 -95 42 -178 84 -185 93
-10 12 -10 14 0 8 6 -4 12 -3 12 2 0 11 -21 30 -35 31 -18 2 -11 44 8 47 9 1
15 -2 11 -7 -3 -5 -10 -7 -15 -4 -5 4 -9 -4 -9 -16 0 -12 3 -19 7 -16 3 4 11
3 17 -3 9 -6 12 10 12 60 0 50 -3 66 -12 60 -6 -6 -14 -7 -17 -3 -4 3 -7 -4
-7 -16 0 -12 4 -20 9 -16 5 3 12 1 15 -4 4 -5 -2 -8 -11 -7 -12 2 -18 12 -18
27 0 13 5 23 12 22 20 -4 37 25 24 41 -14 17 -49 27 -56 16 -2 -4 -16 -7 -31
-7 -17 0 -22 2 -13 7 6 5 19 6 28 3 13 -5 14 -3 4 7 -16 17 -45 22 -38 7 3 -7
-2 -2 -11 11 -18 24 -36 30 -28 8 3 -8 1 -17 -5 -21 -7 -4 -8 0 -4 11 5 13 3
15 -7 9 -8 -5 -11 -4 -6 3 3 6 -2 16 -13 21 -26 14 -34 14 -26 -1 4 -7 -2 -2
-13 11 -19 23 -20 23 -25 5 -3 -12 -5 -13 -6 -4 -2 24 -40 44 -57 29 -8 -6
-17 -9 -21 -5 -3 3 -1 6 6 6 7 0 10 4 6 10 -3 5 -12 7 -20 3 -8 -3 -15 -1 -15
4 0 5 36 26 79 47 44 21 81 46 83 55 3 14 3 1212 -1 1282 -1 24 -37 44 -485
268 -266 132 -492 241 -502 240 -11 0 -239 -110 -509 -245z m-324 -1651 c13
-16 12 -17 -3 -4 -10 7 -18 15 -18 17 0 8 8 3 21 -13z m-33 -17 c-7 -8 -15
-12 -17 -11 -5 6 10 25 20 25 5 0 4 -6 -3 -14z m57 -9 c-5 -18 -2 -23 15 -23
13 0 19 5 16 13 -3 7 -1 13 5 13 21 0 3 -33 -19 -35 -27 -2 -35 8 -27 35 9 28
17 25 10 -3z m1625 12 c0 -5 -4 -7 -10 -4 -5 3 -10 2 -10 -4 0 -5 5 -13 10
-16 6 -3 10 -11 10 -18 0 -6 -7 -1 -16 11 -15 22 -12 42 7 42 5 0 9 -5 9 -11z
m-1721 -44 c0 -5 -4 -3 -9 5 -5 8 -9 22 -9 30 0 16 17 -16 18 -35z m61 21 c0
-20 -17 -29 -26 -15 -5 8 -3 9 6 4 10 -6 12 -4 7 8 -3 10 -2 17 3 17 6 0 10
-6 10 -14z m1697 -2 c-3 -3 -12 -4 -19 -1 -8 3 -5 6 6 6 11 1 17 -2 13 -5z
m57 -15 c-3 -5 -14 -7 -24 -4 -13 4 -17 0 -16 -17 1 -18 -4 -23 -24 -23 -26 0
-36 26 -12 31 7 1 8 0 2 -3 -16 -8 -12 -19 9 -20 13 -1 18 5 17 20 -1 17 4 21
22 20 15 -2 21 1 16 9 -4 7 -3 8 5 4 6 -4 9 -12 5 -17z m-1863 -12 c-10 -9
-11 -8 -5 6 3 10 9 15 12 12 3 -3 0 -11 -7 -18z m1674 5 c-3 -3 -11 0 -18 7
-9 10 -8 11 6 5 10 -3 15 -9 12 -12z m70 -2 c0 -7 -6 -14 -13 -16 -7 -1 -8 0
-2 3 17 8 11 19 -10 20 -13 1 -18 -2 -14 -9 4 -7 2 -8 -5 -4 -6 4 -9 12 -6 17
9 13 50 4 50 -11z m-1719 -12 c-2 -16 -10 -22 -23 -21 -12 1 -19 -5 -20 -16
-1 -14 4 -17 17 -14 10 3 20 1 23 -4 3 -5 -7 -8 -21 -7 -22 1 -27 6 -27 25 1
19 6 23 23 22 12 -2 21 1 21 5 -2 14 1 32 6 32 3 0 3 -10 1 -22z m190 -5 c-4
-4 -12 -1 -19 7 -9 10 -9 11 1 6 7 -4 12 -2 13 6 0 11 2 11 6 0 3 -7 2 -16 -1
-19z m-310 2 c-3 -8 0 -15 6 -15 6 0 9 -3 5 -6 -10 -11 -26 6 -20 21 3 8 7 15
10 15 3 0 3 -7 -1 -15z m44 11 c0 -2 -7 -7 -16 -10 -8 -3 -12 -2 -9 4 6 10 25
14 25 6z m135 -29 c1 -14 -2 -32 -6 -39 -5 -8 -7 3 -5 25 4 34 2 37 -18 32
-17 -5 -18 -4 -6 4 22 16 34 8 35 -22z m45 18 c0 -8 -2 -15 -4 -15 -2 0 -6 7
-10 15 -3 8 -1 15 4 15 6 0 10 -7 10 -15z m1500 5 c0 -5 -5 -10 -11 -10 -5 0
-7 5 -4 10 3 6 8 10 11 10 2 0 4 -4 4 -10z m285 0 c3 -6 -1 -7 -9 -4 -18 7
-21 14 -7 14 6 0 13 -4 16 -10z m31 -7 c-2 -9 -9 -19 -17 -21 -11 -3 -11 -1 1
7 8 6 11 11 7 11 -5 0 -5 5 -2 10 9 15 14 12 11 -7z m-1989 -7 c-10 -8 -18
-18 -17 -23 1 -4 -7 -9 -17 -10 -15 -2 -15 -1 2 6 11 5 16 10 10 11 -10 1 24
30 34 30 3 0 -2 -7 -12 -14z m214 -6 c6 0 7 5 3 12 -5 7 -3 8 5 3 9 -5 9 -11
3 -17 -12 -12 -32 -2 -31 15 0 9 2 9 6 0 2 -7 9 -13 14 -13z m99 5 c5 3 11 1
14 -4 4 -5 -2 -8 -11 -7 -9 2 -18 8 -19 15 -1 6 0 7 3 1 2 -5 9 -8 13 -5z
m1432 1 c7 4 8 2 4 -5 -4 -6 -12 -9 -17 -6 -5 4 -9 1 -9 -6 0 -7 -2 -10 -5 -7
-3 3 -2 13 2 24 4 11 8 13 11 6 2 -7 9 -9 14 -6z m-1452 -21 c14 -19 14 -19
-2 -6 -10 7 -18 18 -18 24 0 6 1 8 3 6 1 -2 9 -13 17 -24z m1356 13 c3 -4 -1
-5 -10 -4 -8 1 -18 5 -22 8 -3 4 1 5 10 4 8 -1 18 -5 22 -8z m157 -3 c4 -8 3
-16 -1 -19 -4 -3 -9 4 -9 15 -2 23 3 25 10 4z m141 -17 c1 -14 -2 -24 -7 -21
-5 3 -7 14 -4 24 4 13 0 19 -13 19 -13 0 -17 -6 -13 -19 3 -10 1 -21 -4 -24
-7 -4 -9 30 -4 51 1 2 11 2 23 0 15 -2 22 -10 22 -30z m-2034 -13 c5 3 14 -4
20 -15 7 -13 7 -20 0 -20 -5 0 -10 7 -10 15 0 8 -6 14 -12 13 -7 -2 -13 6 -14
17 -1 15 0 16 3 2 3 -9 8 -15 13 -12z m21 18 c13 -16 12 -17 -3 -4 -10 7 -18
15 -18 17 0 8 8 3 21 -13z m1753 2 c3 -8 1 -15 -4 -15 -6 0 -10 7 -10 15 0 8
2 15 4 15 2 0 6 -7 10 -15z m-1584 -11 c0 -2 -7 -4 -15 -4 -8 0 -15 4 -15 10
0 5 7 7 15 4 8 -4 15 -8 15 -10z m109 -3 c19 -14 21 -20 10 -26 -8 -5 -11 -4
-6 0 4 5 -5 17 -20 27 -16 10 -23 18 -18 18 6 0 21 -9 34 -19z m51 15 c0 -2
-7 -6 -15 -10 -8 -3 -15 -1 -15 4 0 6 7 10 15 10 8 0 15 -2 15 -4z m1520 0 c0
-2 -7 -6 -15 -10 -8 -3 -15 -1 -15 4 0 6 7 10 15 10 8 0 15 -2 15 -4z m104 -4
c2 -4 -5 -9 -17 -9 -17 -2 -19 0 -7 7 18 12 18 12 24 2z m136 -8 c0 -2 -7 -4
-15 -4 -8 0 -15 4 -15 10 0 5 7 7 15 4 8 -4 15 -8 15 -10z m-188 -1 c-6 -2 -9
-10 -6 -15 4 -7 2 -8 -5 -4 -13 9 -5 26 12 25 9 0 8 -2 -1 -6z m-2010 -33 c-2
-12 0 -20 5 -17 5 3 15 1 23 -4 11 -7 8 -8 -10 -5 -18 2 -25 9 -24 25 0 15 -4
20 -13 17 -8 -4 -11 -1 -8 5 11 18 30 3 27 -21z m48 4 c0 -17 -16 -19 -26 -2
-5 7 -3 8 6 3 10 -6 12 -4 7 9 -4 10 -3 15 3 11 6 -3 10 -13 10 -21z m131 -7
c-5 -5 -17 -4 -28 2 -16 11 -16 11 4 6 19 -5 22 -3 17 12 -5 15 -4 15 5 3 6
-8 6 -19 2 -23z m169 23 c-8 -5 -18 -6 -24 -3 -5 4 -7 -1 -3 -10 3 -10 2 -17
-3 -17 -10 0 -14 23 -5 31 2 3 14 5 27 6 17 2 19 0 8 -7z m1574 1 c3 -4 -4 -7
-14 -6 -27 2 -33 10 -10 12 11 1 22 -2 24 -6z m41 -21 c1 -16 -1 -17 -13 -8
-9 8 -10 14 -3 16 6 2 8 9 4 15 -3 7 -2 9 2 4 5 -4 9 -16 10 -27z m201 18 c4
-7 3 -8 -4 -4 -7 4 -12 5 -12 2 0 -2 -3 -12 -6 -21 -4 -10 -2 -15 7 -13 9 2
14 -6 14 -22 -1 -20 -5 -24 -23 -23 -15 2 -21 -1 -16 -9 4 -7 3 -8 -5 -4 -17
11 -2 28 18 21 12 -3 17 1 18 15 1 11 -2 18 -7 15 -15 -9 -21 14 -10 35 12 23
16 24 26 8z m64 2 c0 -5 -4 -10 -10 -10 -5 0 -10 5 -10 10 0 6 5 10 10 10 6 0
10 -4 10 -10z m115 0 c4 -6 -1 -7 -11 -3 -13 5 -15 3 -9 -7 5 -9 4 -11 -4 -6
-6 4 -9 12 -6 17 8 12 22 12 30 -1z m-320 -20 c-4 -14 -2 -20 6 -18 7 2 14 -6
16 -17 2 -16 1 -16 -5 -4 -4 9 -15 15 -24 14 -14 -3 -15 1 -6 21 14 29 22 32
13 4z m39 5 c3 -8 1 -15 -4 -15 -6 0 -10 7 -10 15 0 8 2 15 4 15 2 0 6 -7 10
-15z m199 -5 c-4 -14 -1 -20 8 -18 8 2 14 -7 15 -22 2 -22 2 -22 -3 -2 -2 12
-8 20 -13 17 -5 -3 -14 3 -19 14 -8 14 -8 21 2 24 6 3 13 6 14 6 0 1 -1 -8 -4
-19z m41 5 c3 -8 1 -15 -4 -15 -6 0 -10 7 -10 15 0 8 2 15 4 15 2 0 6 -7 10
-15z m-2236 -37 c-13 -9 -27 -18 -33 -18 -5 0 2 8 17 18 23 15 25 21 15 32
-10 12 -9 12 6 0 18 -13 18 -15 -5 -32z m155 25 c-4 -11 -3 -14 5 -9 7 4 15 1
18 -8 3 -9 9 -14 13 -11 4 2 8 -2 8 -10 0 -8 -4 -15 -9 -15 -4 0 -8 5 -8 11 0
5 -4 7 -10 4 -5 -3 -7 0 -4 9 4 11 0 14 -15 11 -11 -2 -24 1 -27 7 -4 6 -3 8
3 5 6 -4 13 0 17 8 3 8 8 15 10 15 3 0 2 -7 -1 -17z m57 1 c0 -8 4 -13 8 -10
4 2 14 0 22 -5 11 -7 9 -8 -9 -6 -14 2 -27 9 -29 15 -2 7 -9 9 -14 6 -7 -4 -8
-2 -4 4 10 17 26 15 26 -4z m95 6 c3 -6 -1 -7 -9 -4 -18 7 -21 14 -7 14 6 0
13 -4 16 -10z m1612 -12 c-3 -8 -6 -5 -6 6 -1 11 2 17 5 13 3 -3 4 -12 1 -19z
m123 7 c0 -8 -2 -15 -4 -15 -2 0 -6 7 -10 15 -3 8 -1 15 4 15 6 0 10 -7 10
-15z m100 4 c12 -8 10 -9 -7 -4 -19 5 -22 3 -17 -12 5 -14 4 -15 -4 -3 -19 25
0 38 28 19z m-2060 -19 c0 -5 -4 -10 -10 -10 -5 0 -10 5 -10 10 0 6 5 10 10
10 6 0 10 -4 10 -10z m205 0 c-3 -5 -12 -10 -18 -10 -7 0 -6 4 3 10 19 12 23
12 15 0z m-377 -24 c-7 -8 -15 -12 -17 -11 -5 6 10 25 20 25 5 0 4 -6 -3 -14z
m142 6 c0 -5 -7 -9 -15 -9 -8 0 -15 4 -15 9 0 4 7 8 15 8 8 0 15 -4 15 -8z
m70 -2 c0 -5 -7 -7 -15 -4 -8 4 -15 8 -15 10 0 2 7 4 15 4 8 0 15 -4 15 -10z
m1929 0 c-6 -5 -18 -6 -26 -3 -19 8 -16 11 13 11 17 0 22 -3 13 -8z m120 0
c-6 -5 -19 -6 -27 -2 -10 3 -13 1 -8 -6 4 -6 -3 -16 -16 -22 -22 -11 -22 -10
-4 4 11 9 16 16 12 16 -4 0 -5 4 -2 9 3 5 17 9 32 9 17 0 22 -3 13 -8z m-2096
-15 c-3 -9 -8 -14 -10 -11 -3 3 -2 9 2 15 9 16 15 13 8 -4z m-159 -19 c-3 -9
-10 -16 -15 -16 -5 0 -4 9 3 20 14 22 21 20 12 -4z m102 1 c1 -9 -2 -15 -7
-11 -5 3 -7 10 -4 15 4 5 1 9 -4 9 -6 0 -11 -5 -11 -12 0 -6 -3 -9 -6 -5 -9 9
6 29 19 24 5 -1 11 -11 13 -20z m79 13 c-3 -5 0 -10 7 -10 9 0 9 -3 -2 -10 -8
-5 -19 -10 -25 -10 -5 0 -3 5 5 10 8 5 11 10 7 10 -9 0 1 20 9 20 3 0 2 -4 -1
-10z m65 -1 c12 -8 10 -9 -7 -4 -19 5 -22 3 -17 -12 5 -14 4 -15 -4 -3 -19 25
0 38 28 19z m1864 3 c3 -5 -1 -9 -9 -9 -8 0 -12 4 -9 9 3 4 7 8 9 8 2 0 6 -4
9 -8z m176 -2 c0 -5 -8 -7 -17 -3 -15 5 -16 3 -5 -8 6 -7 12 -17 12 -23 0 -5
-6 -1 -14 9 -8 11 -12 23 -10 27 7 11 34 10 34 -2z m-2240 -15 c0 -8 -4 -15
-10 -15 -5 0 -7 7 -4 15 4 8 8 15 10 15 2 0 4 -7 4 -15z m90 1 c0 -3 -4 -8
-10 -11 -5 -3 -10 -1 -10 4 0 6 5 11 10 11 6 0 10 -2 10 -4z m2109 -19 c0 -9
-2 -9 -5 0 -3 7 -13 9 -22 6 -14 -4 -14 -3 -2 5 16 12 30 7 29 -11z m81 16 c0
-5 -5 -15 -10 -23 -7 -12 -9 -10 -7 8 1 19 17 33 17 15z m-2303 -44 c-4 -13 0
-19 12 -19 12 0 17 7 17 21 -1 13 6 23 17 24 9 2 17 -1 17 -7 0 -6 -7 -7 -16
-4 -11 4 -14 0 -12 -17 2 -17 -2 -22 -21 -22 -19 0 -24 5 -25 27 -1 14 2 24 7
21 5 -3 7 -14 4 -24z m129 19 c4 -7 3 -8 -4 -4 -7 4 -12 2 -12 -5 0 -7 -3 -10
-6 -6 -6 5 3 27 11 27 2 0 7 -5 11 -12z m2049 1 c11 -16 1 -19 -13 -3 -7 8 -8
14 -3 14 5 0 13 -5 16 -11z m-2082 -39 c-3 -3 -8 1 -10 8 -3 6 -9 10 -14 7 -5
-4 -6 1 -3 10 6 14 8 14 19 -2 8 -10 11 -20 8 -23z m2137 20 c-8 -5 -19 -10
-25 -10 -5 0 -3 5 5 10 8 5 20 10 25 10 6 0 3 -5 -5 -10z m48 -31 c3 -11 2
-12 -6 -1 -5 8 -12 13 -16 12 -4 -1 -12 1 -19 4 -6 2 -1 3 12 2 14 -2 27 -9
29 -17z m-2288 -9 c12 -7 10 -9 -8 -7 -12 0 -22 5 -22 9 0 11 12 10 30 -2z"/>
</g>
</svg>
